<svg xmlns="http://www.w3.org/2000/svg" xmlns:xlink="http://www.w3.org/1999/xlink" viewBox="0 0 145.53 126.15"><defs><style>.cls-1{isolation:isolate;}.cls-2{fill:url(#linear-gradient);}.cls-3{fill:url(#linear-gradient-2);}.cls-4,.cls-6{mix-blend-mode:multiply;opacity:0.7;}.cls-4{fill:url(#linear-gradient-3);}.cls-5{fill:url(#linear-gradient-4);}.cls-6{fill:url(#linear-gradient-5);}.cls-7{fill:#fff;}.cls-8{fill:url(#linear-gradient-6);}</style><linearGradient id="linear-gradient" x1="38.58" y1="23.71" x2="99.23" y2="-9.28" gradientUnits="userSpaceOnUse"><stop offset="0" stop-color="#b3822c"/><stop offset="1" stop-color="#e4cd69"/></linearGradient><linearGradient id="linear-gradient-2" x1="45.14" y1="35.77" x2="105.8" y2="2.79" xlink:href="#linear-gradient"/><linearGradient id="linear-gradient-3" x1="62.04" y1="26.53" x2="65.07" y2="28.83" gradientUnits="userSpaceOnUse"><stop offset="0" stop-color="#b3822c"/><stop offset="1" stop-color="#e4cd69" stop-opacity="0"/></linearGradient><linearGradient id="linear-gradient-4" x1="51.44" y1="47.35" x2="112.09" y2="14.37" xlink:href="#linear-gradient"/><linearGradient id="linear-gradient-5" x1="91.87" y1="26.53" x2="94.89" y2="28.83" xlink:href="#linear-gradient-3"/><linearGradient id="linear-gradient-6" x1="50.74" y1="124.63" x2="91.53" y2="100.55" xlink:href="#linear-gradient"/></defs><g class="cls-1"><g id="Layer_2" data-name="Layer 2"><g id="Layer_1-2" data-name="Layer 1"><path class="cls-2" d="M49.47,37.74a5.38,5.38,0,0,1-1.8-.32,5.22,5.22,0,0,1-3.52-5V0l19.5,23.42L53.54,35.79A5.26,5.26,0,0,1,49.47,37.74Zm.22-22.42V31.74l6.77-8.29Z"/><polygon class="cls-3" points="70.93 32.18 63.65 23.42 74.97 9.56 86.3 23.42 79.51 32.18 86.22 32.18 93.48 23.45 74.97 0.81 56.46 23.45 63.73 32.18 70.93 32.18"/><polygon class="cls-4" points="63.65 23.42 60.07 27.79 63.65 32.08 67.25 27.75 63.65 23.42"/><path class="cls-5" d="M100.48,37.74a5.24,5.24,0,0,1-4.07-2L86.3,23.42,105.79,0V32.44a5.23,5.23,0,0,1-3.51,5A5.38,5.38,0,0,1,100.48,37.74Zm-7-14.29,6.77,8.28V15.32Z"/><polygon class="cls-6" points="93.47 23.42 89.89 27.79 93.47 32.08 97.07 27.75 93.47 23.42"/><path class="cls-7" d="M39.5,51.94v4.15h2.31a3,3,0,0,0,.82-.09,1,1,0,0,0,.74-.75,3.2,3.2,0,0,0,.09-.68h.29v3.65h-.29a7.11,7.11,0,0,0-.13-.75,1.09,1.09,0,0,0-.24-.48,1,1,0,0,0-.47-.25,3.44,3.44,0,0,0-.81-.08H39.5v3.47c0,.27,0,.47,0,.63a.66.66,0,0,0,.1.35.41.41,0,0,0,.25.16,3.3,3.3,0,0,0,.51,0h1.78l.77,0a3.36,3.36,0,0,0,.54-.09,1.64,1.64,0,0,0,.4-.19l.37-.31a5.78,5.78,0,0,0,1-1.45h.31l-.91,2.64H36.5v-.29h.38l.31,0,.31-.1a.85.85,0,0,0,.25-.17.56.56,0,0,0,.17-.24A3.68,3.68,0,0,0,38,60V53.2a2.32,2.32,0,0,0-.2-1.24,1.17,1.17,0,0,0-.93-.31H36.5v-.29h8.11v2.3h-.19a5,5,0,0,0-.25-.91,1.17,1.17,0,0,0-.35-.52,1,1,0,0,0-.56-.24,5.36,5.36,0,0,0-.87-.05Z"/><path class="cls-7" d="M62.11,59l.25,0-.9,2.86H53.31v-.29h.4a1.07,1.07,0,0,0,.95-.43A2.5,2.5,0,0,0,54.82,60v-6.8A2.13,2.13,0,0,0,54.6,52a1.1,1.1,0,0,0-.89-.34h-.4v-.29h4.77v.29a4.61,4.61,0,0,0-.71,0,2.18,2.18,0,0,0-.47.11.8.8,0,0,0-.29.18,1.3,1.3,0,0,0-.18.23,3.92,3.92,0,0,0-.11,1.2V60a2.6,2.6,0,0,0,.08.79.5.5,0,0,0,.32.33,5.57,5.57,0,0,0,1.22.07h.76A5.91,5.91,0,0,0,60.4,61a2.56,2.56,0,0,0,.47-.23,3.14,3.14,0,0,0,.43-.4,4.3,4.3,0,0,0,.4-.59A8.31,8.31,0,0,0,62.11,59Z"/><path class="cls-7" d="M74.71,61.59v.29H70.2v-.29h.37a2.37,2.37,0,0,0,.49,0,.63.63,0,0,0,.36-.19,1.19,1.19,0,0,0,.21-.48,3.86,3.86,0,0,0,.08-.86v-6.8c0-.24,0-.44,0-.59a1.78,1.78,0,0,0-.06-.39.67.67,0,0,0-.12-.24,1.05,1.05,0,0,0-.22-.17,1.54,1.54,0,0,0-.72-.18H70.2v-.29h4.51v.29h-.38a2.49,2.49,0,0,0-.49,0,.66.66,0,0,0-.35.21,1.08,1.08,0,0,0-.21.47,3.82,3.82,0,0,0-.08.85V60c0,.24,0,.45,0,.6a1.78,1.78,0,0,0,.06.38.68.68,0,0,0,.13.24,1.53,1.53,0,0,0,.23.17,1.4,1.4,0,0,0,.7.18Z"/><path class="cls-7" d="M91.4,51.36v2.48h-.17a2.2,2.2,0,0,0-.58-1.41A2,2,0,0,0,89.3,52H87.82v8a3.69,3.69,0,0,0,.07.84,1,1,0,0,0,.21.46.67.67,0,0,0,.35.19,2.37,2.37,0,0,0,.49,0h.36v.29H84.84v-.29h.37a2.37,2.37,0,0,0,.49,0,.61.61,0,0,0,.34-.21,1,1,0,0,0,.22-.45,3.65,3.65,0,0,0,.07-.83V52H85.07a4.25,4.25,0,0,0-.84.07,1.64,1.64,0,0,0-.63.28,1.34,1.34,0,0,0-.42.56,2.47,2.47,0,0,0-.19.91H82.7V51.36Z"/><path class="cls-7" d="M102.35,51.94v4.15h2.3a3,3,0,0,0,.82-.09,1.06,1.06,0,0,0,.5-.28,1,1,0,0,0,.25-.47,5.38,5.38,0,0,0,.09-.68h.29v3.65h-.29a5.07,5.07,0,0,0-.14-.75,1.09,1.09,0,0,0-.24-.48.92.92,0,0,0-.47-.25,3.44,3.44,0,0,0-.81-.08h-2.3v3.47c0,.27,0,.47,0,.63a.77.77,0,0,0,.09.35.43.43,0,0,0,.26.16,3.13,3.13,0,0,0,.51,0H105l.76,0a3.36,3.36,0,0,0,.54-.09,1.48,1.48,0,0,0,.4-.19,4.68,4.68,0,0,0,.37-.31,5.77,5.77,0,0,0,1-1.45h.31l-.92,2.64h-8.1v-.29h.37a1.63,1.63,0,0,0,.31,0l.31-.1a.9.9,0,0,0,.26-.17.54.54,0,0,0,.16-.24,3.57,3.57,0,0,0,.1-1V53.2a2.32,2.32,0,0,0-.2-1.24,1.21,1.21,0,0,0-.94-.31h-.37v-.29h8.1v2.3h-.18a5.94,5.94,0,0,0-.25-.91,1.36,1.36,0,0,0-.35-.52,1.06,1.06,0,0,0-.56-.24,5.42,5.42,0,0,0-.88-.05Z"/><path class="cls-7" d="M10.46,87.88H7.66L4.1,83l-.35,0H3.24L3,83V86a4,4,0,0,0,.07.87,1.19,1.19,0,0,0,.22.48.71.71,0,0,0,.35.19,3.23,3.23,0,0,0,.46,0h.41v.29H0v-.29H.41a1.05,1.05,0,0,0,.94-.43A2.46,2.46,0,0,0,1.52,86v-6.8A2.22,2.22,0,0,0,1.3,78a1.12,1.12,0,0,0-.89-.34H0v-.29H3.83c.56,0,1,0,1.46.06a5.21,5.21,0,0,1,1,.19A3.38,3.38,0,0,1,7,78a2.85,2.85,0,0,1,.61.54,2.63,2.63,0,0,1,.41.71,2.37,2.37,0,0,1,.15.85,2.46,2.46,0,0,1-.63,1.69,3.57,3.57,0,0,1-1.95,1l2.16,3c.26.35.48.64.68.86a2.82,2.82,0,0,0,.59.53,2.07,2.07,0,0,0,.62.29,3.9,3.9,0,0,0,.78.14ZM3,82.48h.44a4.39,4.39,0,0,0,1.32-.18,2.83,2.83,0,0,0,1-.48,2.14,2.14,0,0,0,.57-.74,2.17,2.17,0,0,0,.19-.92,2.44,2.44,0,0,0-.16-.9,2,2,0,0,0-.46-.7,2.07,2.07,0,0,0-.72-.46A2.51,2.51,0,0,0,4.21,78,6.35,6.35,0,0,0,3,78.1Z"/><path class="cls-7" d="M20.76,77.94v4.15h2.3a3.13,3.13,0,0,0,.83-.09,1.07,1.07,0,0,0,.49-.28,1,1,0,0,0,.25-.47,4,4,0,0,0,.09-.68H25v3.65h-.29a7.11,7.11,0,0,0-.13-.75,1,1,0,0,0-.25-.48.89.89,0,0,0-.46-.25,3.59,3.59,0,0,0-.82-.08h-2.3v3.47c0,.27,0,.47,0,.63a.66.66,0,0,0,.1.35.38.38,0,0,0,.25.16,3.3,3.3,0,0,0,.51,0h1.78l.77,0a3.42,3.42,0,0,0,.53-.09,1.35,1.35,0,0,0,.4-.19,4.68,4.68,0,0,0,.37-.31,5.77,5.77,0,0,0,1-1.45h.31l-.91,2.64H17.76v-.29h.37l.32,0a2.64,2.64,0,0,0,.3-.1.78.78,0,0,0,.26-.17.54.54,0,0,0,.16-.24,3.23,3.23,0,0,0,.1-1V79.2a2.32,2.32,0,0,0-.2-1.24,1.2,1.2,0,0,0-.94-.31h-.37v-.29h8.11v2.3h-.19a5.94,5.94,0,0,0-.25-.91,1.26,1.26,0,0,0-.35-.52,1,1,0,0,0-.56-.24,5.42,5.42,0,0,0-.88,0Z"/><path class="cls-7" d="M41.54,77.13v3.63h-.29a3.85,3.85,0,0,0-1-2.24,2.58,2.58,0,0,0-1.94-.78,2,2,0,0,0-.74.14,2.08,2.08,0,0,0-.59.36,1.81,1.81,0,0,0-.4.52,1.38,1.38,0,0,0-.13.6,1.29,1.29,0,0,0,.11.55,3.46,3.46,0,0,0,.72.82c.67.42,1.27.77,1.79,1s1.16.68,2,1.23a2.9,2.9,0,0,1,.83,1,2.65,2.65,0,0,1,.29,1.2A2.72,2.72,0,0,1,42,86.32a3.1,3.1,0,0,1-.68.93,3.25,3.25,0,0,1-1.05.64,3.66,3.66,0,0,1-1.34.23,5.71,5.71,0,0,1-.86-.06L37.7,88l-.63-.18-.63-.18-.33-.08a.39.39,0,0,0-.31.12.93.93,0,0,0-.17.48h-.29V84.51h.29a5.76,5.76,0,0,0,.54,1.7,2.14,2.14,0,0,0,.44.52,3.3,3.3,0,0,0,.61.42,3.12,3.12,0,0,0,.74.27,3.08,3.08,0,0,0,.8.1,2.41,2.41,0,0,0,.87-.14,1.92,1.92,0,0,0,.66-.37,1.72,1.72,0,0,0,.42-.55A1.61,1.61,0,0,0,40.64,85a2.75,2.75,0,0,0-.73-.78l-1.18-.7c-.87-.5-1.65-1-2.32-1.45a3.34,3.34,0,0,1-.87-1,2.53,2.53,0,0,1-.29-1.2,2.59,2.59,0,0,1,.23-1.06,2.77,2.77,0,0,1,.64-.88,2.88,2.88,0,0,1,1-.6,3.32,3.32,0,0,1,1.23-.22,4.5,4.5,0,0,1,1.77.4l.37.15a.56.56,0,0,0,.58-.07.94.94,0,0,0,.2-.48Z"/><path class="cls-7" d="M55.1,87.59v.29H50.59v-.29H51a2.53,2.53,0,0,0,.5,0,.64.64,0,0,0,.35-.19,1.19,1.19,0,0,0,.21-.48A3.86,3.86,0,0,0,52.1,86v-6.8c0-.24,0-.44,0-.59a1.78,1.78,0,0,0-.06-.39A.46.46,0,0,0,51.9,78a1.05,1.05,0,0,0-.22-.17,1.54,1.54,0,0,0-.72-.18h-.37v-.29H55.1v.29h-.37a2.53,2.53,0,0,0-.5,0,.66.66,0,0,0-.35.21,1.08,1.08,0,0,0-.21.47,3.82,3.82,0,0,0-.08.85V86c0,.24,0,.45,0,.6a1.78,1.78,0,0,0,.06.38.68.68,0,0,0,.13.24,1.53,1.53,0,0,0,.23.17,1.44,1.44,0,0,0,.71.18Z"/><path class="cls-7" d="M62.87,87.88v-.29h.4a2.33,2.33,0,0,0,.48,0,.64.64,0,0,0,.35-.21,1.19,1.19,0,0,0,.21-.48,3.72,3.72,0,0,0,.08-.84v-6.8A2.22,2.22,0,0,0,64.17,78a1.14,1.14,0,0,0-.9-.34h-.4v-.29h4.28a9.37,9.37,0,0,1,3.59.54,4.28,4.28,0,0,1,2,1.79,5.52,5.52,0,0,1,.75,2.88,5.9,5.9,0,0,1-.37,2.14A4.5,4.5,0,0,1,72,86.39a5.1,5.1,0,0,1-1.84,1.1,7.7,7.7,0,0,1-2.56.39Zm3-.76a8,8,0,0,0,1.64.22A4.13,4.13,0,0,0,69.18,87a3.75,3.75,0,0,0,1.32-.94,4.28,4.28,0,0,0,.88-1.48,5.37,5.37,0,0,0,.32-1.94,5.72,5.72,0,0,0-.31-2,4.24,4.24,0,0,0-.88-1.49,4,4,0,0,0-1.34-.93A4.53,4.53,0,0,0,67.46,78a6.68,6.68,0,0,0-1.58.23Z"/><path class="cls-7" d="M84.51,77.94v4.15h2.3a3.13,3.13,0,0,0,.83-.09,1.07,1.07,0,0,0,.49-.28,1,1,0,0,0,.25-.47,5.38,5.38,0,0,0,.09-.68h.29v3.65h-.29a7.11,7.11,0,0,0-.13-.75,1,1,0,0,0-.25-.48.88.88,0,0,0-.47-.25,3.44,3.44,0,0,0-.81-.08h-2.3v3.47c0,.27,0,.47,0,.63a.77.77,0,0,0,.09.35.43.43,0,0,0,.26.16,3.13,3.13,0,0,0,.51,0h1.78l.76,0a3.36,3.36,0,0,0,.54-.09,1.48,1.48,0,0,0,.4-.19,4.68,4.68,0,0,0,.37-.31,5.77,5.77,0,0,0,1-1.45h.31l-.91,2.64H81.51v-.29h.37a1.63,1.63,0,0,0,.31,0,2.26,2.26,0,0,0,.31-.1.9.9,0,0,0,.26-.17.54.54,0,0,0,.16-.24,3.23,3.23,0,0,0,.1-1V79.2a2.32,2.32,0,0,0-.2-1.24,1.21,1.21,0,0,0-.94-.31h-.37v-.29h8.11v2.3h-.19a5.94,5.94,0,0,0-.25-.91,1.36,1.36,0,0,0-.35-.52,1.06,1.06,0,0,0-.56-.24,5.42,5.42,0,0,0-.88,0Z"/><path class="cls-7" d="M97.79,77.36h2.85l6.44,7.89V79.19a3.76,3.76,0,0,0-.08-.85.94.94,0,0,0-.22-.46.64.64,0,0,0-.35-.19,2.29,2.29,0,0,0-.47,0h-.38v-.29h3.67v.29h-.38a2.33,2.33,0,0,0-.48,0,.66.66,0,0,0-.35.21,1.16,1.16,0,0,0-.21.46,3.71,3.71,0,0,0-.07.83v8.87h-.28l-6.93-8.48v6.48a3.73,3.73,0,0,0,.07.85,1,1,0,0,0,.22.46.64.64,0,0,0,.35.19,3.18,3.18,0,0,0,.47,0H102v.29H98.37v-.29h.37a2.37,2.37,0,0,0,.49,0,.61.61,0,0,0,.35-.21,1,1,0,0,0,.22-.45,4.34,4.34,0,0,0,.07-.83V78.75l-.39-.44a2.35,2.35,0,0,0-.3-.27,1.11,1.11,0,0,0-.3-.17,3.44,3.44,0,0,0-.4-.15,2.47,2.47,0,0,0-.69-.07Z"/><path class="cls-7" d="M126.15,77.13l.24,3.57h-.24a4.52,4.52,0,0,0-1.37-2.31,3.32,3.32,0,0,0-2.14-.71,3.49,3.49,0,0,0-1.49.31,3,3,0,0,0-1.18.94,4.87,4.87,0,0,0-.77,1.6,8.46,8.46,0,0,0-.27,2.27,6.35,6.35,0,0,0,.26,1.91,4,4,0,0,0,.76,1.46,3.43,3.43,0,0,0,1.23.94,4.06,4.06,0,0,0,1.68.33,3.76,3.76,0,0,0,1.81-.44,5.67,5.67,0,0,0,1.72-1.73l.25.15a5.74,5.74,0,0,1-1.85,2,4.62,4.62,0,0,1-2.51.65,5.32,5.32,0,0,1-2.06-.39,4.76,4.76,0,0,1-1.61-1.1,5.15,5.15,0,0,1-1.06-1.69,5.79,5.79,0,0,1-.38-2.15,6,6,0,0,1,.7-2.9,4.87,4.87,0,0,1,1.94-2,5.21,5.21,0,0,1,2.7-.73,4.92,4.92,0,0,1,2.25.55,1.2,1.2,0,0,0,.46.18.54.54,0,0,0,.43-.21,1.24,1.24,0,0,0,.23-.52Z"/><path class="cls-7" d="M141.86,77.36h3.67v.29h-.2a1.55,1.55,0,0,0-1,.4,5.24,5.24,0,0,0-1.13,1.38l-2.53,4v2.64a3.69,3.69,0,0,0,.07.84,1,1,0,0,0,.22.46.7.7,0,0,0,.36.19,2.43,2.43,0,0,0,.49,0h.34v.29h-4.47v-.29h.38a2.37,2.37,0,0,0,.49,0,.64.64,0,0,0,.35-.21,1,1,0,0,0,.21-.45,4.48,4.48,0,0,0,.06-.83v-2.5l-2.88-4.4-.43-.63a4,4,0,0,0-.26-.34l-.16-.14a1.58,1.58,0,0,0-.27-.18,3,3,0,0,0-.36-.15,1.16,1.16,0,0,0-.42-.07v-.29h4.5v.29h-.24a1.32,1.32,0,0,0-.34,0,1.52,1.52,0,0,0-.32.12.73.73,0,0,0-.22.21.54.54,0,0,0-.09.31.76.76,0,0,0,.12.39,7,7,0,0,0,.36.62l2.18,3.39,2.08-3.24a2.78,2.78,0,0,0,.46-1.09,1.32,1.32,0,0,0-.08-.3.56.56,0,0,0-.17-.24.87.87,0,0,0-.32-.15,1.75,1.75,0,0,0-.5-.06Z"/><path class="cls-8" d="M89.08,105.39,89,104.6a4.55,4.55,0,0,0-1-2.31,4.41,4.41,0,0,0-2.55-1.73,10.85,10.85,0,0,0-6.62.67c-.36.14-.73.33-1,.49a7,7,0,0,0-1.23.75c-.9.64-2.42,1.81-4.23,3.29l-.17.14,0-.21a6.33,6.33,0,0,0-1-2.8,4.44,4.44,0,0,0-2.55-1.73,11.14,11.14,0,0,0-2.29-.24,10.89,10.89,0,0,0-4.33.91,10.38,10.38,0,0,0-1,.47l0,0a6.92,6.92,0,0,0-2.58,2.09,4.44,4.44,0,0,0-1.07,3.45,8.12,8.12,0,0,0,1.57,3.52c.63.8,1.34,1.55,2,2.28.21.2.31.34.3.49s-.13.28-.32.47a4.16,4.16,0,0,1-.59.51,48.2,48.2,0,0,0-4.9,4.3,11,11,0,0,0-2,2.59,3,3,0,0,0-.47,2.26,2.77,2.77,0,0,0,1.55,1.48l.3.08.29.09a8.27,8.27,0,0,0,4.28-.15,17.34,17.34,0,0,0,5.7-2.57,5.26,5.26,0,0,0,1.56-1.59,3.12,3.12,0,0,0-.18-3.45A11.45,11.45,0,0,0,65,116.55c-.18-.21-.37-.41-.55-.63l0,0c-.44-.54-.43-.62.08-1.06l0,0,.89-.66c.29-.2.57-.41.85-.62A62.82,62.82,0,0,0,72,108.85l.23-.2,1.9-1.68c0,.09,0,.19,0,.29a8,8,0,0,0,1.57,3.52,30,30,0,0,0,2,2.29c.41.41.36.56,0,1a4.07,4.07,0,0,1-.58.51,48.25,48.25,0,0,0-4.91,4.31,10.72,10.72,0,0,0-2,2.59,3,3,0,0,0-.47,2.26,2.79,2.79,0,0,0,1.55,1.47l.29.09.29.08a8.31,8.31,0,0,0,4.29-.15,17.4,17.4,0,0,0,5.7-2.56,5.29,5.29,0,0,0,1.56-1.6,3.14,3.14,0,0,0-.18-3.45A12.05,12.05,0,0,0,81.92,116c-.19-.2-.37-.41-.56-.63l0,0c-.44-.54-.44-.62.07-1.06l.06,0c.29-.22,16.19-13.77,15.76-14.46ZM65,118.12a3.14,3.14,0,0,1-.56,4,11.17,11.17,0,0,1-4.58,2.58c-.67.21-1.39.42-2.1.57a6.08,6.08,0,0,1-1.37.14,6.48,6.48,0,0,1-.87,0,.87.87,0,0,1-.77-1.06,3.31,3.31,0,0,1,.36-1,9.64,9.64,0,0,1,2-2.47,58.9,58.9,0,0,1,5.33-4.47c.61-.43.68-.42,1.19.08A6.75,6.75,0,0,1,65,118.12Zm5.24-10.79c-1,.77-2.15,1.68-3.37,2.59l-4.14,3.19c-.27.22-.44.33-.59.33s-.31-.13-.6-.41a11.31,11.31,0,0,1-2.07-2.76,4.3,4.3,0,0,1,1.09-5.46,10.57,10.57,0,0,1,4.94-2.33,12.42,12.42,0,0,1,3.45-.11,2.67,2.67,0,0,1,2.29,2.33,4.17,4.17,0,0,1,0,.7A2.08,2.08,0,0,1,70.2,107.33Zm11.68,10.19a3.14,3.14,0,0,1-.55,4,11.17,11.17,0,0,1-4.58,2.58,20.24,20.24,0,0,1-2.1.57,5.55,5.55,0,0,1-1.37.14,8.43,8.43,0,0,1-.87,0,.88.88,0,0,1-.78-1.06,3.55,3.55,0,0,1,.37-1,9.81,9.81,0,0,1,2-2.47,57.42,57.42,0,0,1,5.32-4.47c.62-.43.69-.42,1.19.08A6.89,6.89,0,0,1,81.88,117.52Zm5.24-10.78c-.9.71-2.1,1.64-3.36,2.58l-4.14,3.19c-.28.22-.44.34-.59.34s-.32-.14-.6-.42a11.12,11.12,0,0,1-2.08-2.76,4.31,4.31,0,0,1,1.09-5.46,10.66,10.66,0,0,1,4.94-2.33,12.44,12.44,0,0,1,3.45-.11,2.68,2.68,0,0,1,2.3,2.34l0,.1a3.8,3.8,0,0,1,.06.58A2.11,2.11,0,0,1,87.12,106.74Z"/></g></g></g></svg>